<?xml version="1.0" encoding="utf-8"?>
<!-- Generator: Adobe Illustrator 24.1.0, SVG Export Plug-In . SVG Version: 6.00 Build 0)  -->
<svg version="1.1" id="Ebene_1" xmlns="http://www.w3.org/2000/svg" xmlns:xlink="http://www.w3.org/1999/xlink" x="0px" y="0px"
	 viewBox="0 0 600 600" style="enable-background:new 0 0 600 600;" xml:space="preserve">
<style type="text/css">
	.st0{fill:#020203;}
	.st1{fill:#DD2214;}
	.st2{fill:#FFD005;}
</style>
<g>
	<path class="st0" d="M62.8,219.9h29.1c5.8,0,10.1,0.2,12.9,0.7c2.8,0.5,5.4,1.5,7.6,3s4.1,3.6,5.6,6.1c1.5,2.5,2.2,5.4,2.2,8.5
		c0,3.4-0.9,6.5-2.8,9.4c-1.8,2.8-4.3,5-7.5,6.4c4.4,1.3,7.8,3.5,10.2,6.6c2.4,3.1,3.6,6.8,3.6,11c0,3.3-0.8,6.5-2.3,9.7
		c-1.5,3.1-3.6,5.6-6.3,7.5c-2.7,1.9-6,3-9.9,3.5c-2.5,0.3-8.4,0.4-17.7,0.5H62.8V219.9z M77.5,232v16.8h9.6c5.7,0,9.3-0.1,10.7-0.2
		c2.5-0.3,4.5-1.2,5.9-2.6c1.4-1.4,2.2-3.3,2.2-5.7c0-2.3-0.6-4.1-1.9-5.5c-1.2-1.4-3.1-2.3-5.5-2.6c-1.5-0.2-5.6-0.2-12.6-0.2H77.5
		z M77.5,260.9v19.5h13.6c5.3,0,8.7-0.1,10.1-0.4c2.2-0.4,4-1.4,5.3-2.9c1.4-1.5,2.1-3.6,2.1-6.2c0-2.2-0.5-4-1.6-5.6
		c-1.1-1.5-2.6-2.6-4.6-3.3c-2-0.7-6.3-1-13-1H77.5z"/>
	<path class="st0" d="M201.9,292.7h-16l-6.4-16.5h-29.1l-6,16.5h-15.6l28.4-72.8h15.5L201.9,292.7z M174.8,263.9l-10-27l-9.8,27
		H174.8z"/>
	<path class="st0" d="M205.9,269l14.3-1.4c0.9,4.8,2.6,8.3,5.2,10.6c2.6,2.3,6.2,3.4,10.7,3.4c4.7,0,8.3-1,10.7-3
		c2.4-2,3.6-4.3,3.6-7c0-1.7-0.5-3.2-1.5-4.4c-1-1.2-2.8-2.3-5.3-3.2c-1.7-0.6-5.6-1.7-11.8-3.2c-7.9-2-13.4-4.4-16.6-7.2
		c-4.5-4-6.7-8.9-6.7-14.6c0-3.7,1.1-7.2,3.2-10.4c2.1-3.2,5.1-5.7,9.1-7.4s8.7-2.5,14.3-2.5c9.1,0,16,2,20.6,6s7,9.4,7.3,16
		l-14.7,0.6c-0.6-3.7-2-6.4-4-8.1c-2.1-1.6-5.2-2.5-9.3-2.5c-4.3,0-7.6,0.9-10,2.6c-1.6,1.1-2.3,2.6-2.3,4.5c0,1.7,0.7,3.2,2.2,4.4
		c1.9,1.6,6.4,3.2,13.5,4.9c7.2,1.7,12.4,3.4,15.9,5.2c3.4,1.8,6.1,4.3,8,7.4c1.9,3.1,2.9,7,2.9,11.6c0,4.2-1.2,8.1-3.5,11.7
		c-2.3,3.6-5.6,6.3-9.8,8.1s-9.5,2.7-15.8,2.7c-9.2,0-16.3-2.1-21.2-6.4C209.9,283.3,206.9,277.1,205.9,269z"/>
	<path class="st0" d="M277.1,292.7v-72.8h14.7v72.8H277.1z"/>
	<path class="st0" d="M302,269l14.3-1.4c0.9,4.8,2.6,8.3,5.2,10.6c2.6,2.3,6.2,3.4,10.7,3.4c4.7,0,8.3-1,10.7-3c2.4-2,3.6-4.3,3.6-7
		c0-1.7-0.5-3.2-1.5-4.4c-1-1.2-2.8-2.3-5.3-3.2c-1.7-0.6-5.6-1.7-11.8-3.2c-7.9-2-13.4-4.4-16.6-7.2c-4.5-4-6.7-8.9-6.7-14.6
		c0-3.7,1.1-7.2,3.2-10.4c2.1-3.2,5.1-5.7,9.1-7.4s8.7-2.5,14.3-2.5c9.1,0,16,2,20.6,6s7,9.4,7.3,16l-14.7,0.6c-0.6-3.7-2-6.4-4-8.1
		c-2.1-1.6-5.2-2.5-9.3-2.5c-4.3,0-7.6,0.9-10,2.6c-1.6,1.1-2.3,2.6-2.3,4.5c0,1.7,0.7,3.2,2.2,4.4c1.9,1.6,6.4,3.2,13.5,4.9
		c7.2,1.7,12.4,3.4,15.9,5.2c3.4,1.8,6.1,4.3,8,7.4c1.9,3.1,2.9,7,2.9,11.6c0,4.2-1.2,8.1-3.5,11.7c-2.3,3.6-5.6,6.3-9.8,8.1
		s-9.5,2.7-15.8,2.7c-9.2,0-16.3-2.1-21.2-6.4C305.9,283.3,303,277.1,302,269z"/>
	<path class="st0" d="M62.4,346.1v-31.8h23v3.8H66.6v9.8h17.6v3.7H66.6v10.8h19.6v3.8H62.4z"/>
	<path class="st0" d="M96,346.1v-31.8h4.2v31.8H96z"/>
	<path class="st0" d="M111,346.1v-31.8h4.3l16.7,25v-25h4v31.8h-4.3L115,321v25H111z"/>
	<path class="st0" d="M146.3,346.1v-31.8h4.2V330l15.8-15.8h5.7l-13.4,12.9l13.9,18.9h-5.6l-11.3-16.1l-5.2,5.1v11H146.3z"/>
	<path class="st0" d="M178.2,330.5c0-5.3,1.4-9.4,4.3-12.4c2.8-3,6.5-4.5,11-4.5c2.9,0,5.6,0.7,8,2.1c2.4,1.4,4.2,3.4,5.4,5.9
		s1.9,5.4,1.9,8.5c0,3.2-0.7,6.1-2,8.7c-1.3,2.5-3.2,4.5-5.5,5.8s-5,2-7.7,2c-3,0-5.7-0.7-8-2.2c-2.4-1.4-4.1-3.4-5.4-5.9
		C178.8,336,178.2,333.3,178.2,330.5z M182.5,330.6c0,3.8,1,6.9,3.1,9.1c2.1,2.2,4.7,3.3,7.8,3.3c3.2,0,5.8-1.1,7.8-3.3
		c2-2.2,3.1-5.4,3.1-9.5c0-2.6-0.4-4.9-1.3-6.8c-0.9-1.9-2.2-3.4-3.8-4.5c-1.7-1.1-3.6-1.6-5.7-1.6c-3,0-5.6,1-7.7,3.1
		C183.6,322.4,182.5,325.8,182.5,330.6z"/>
	<path class="st0" d="M217.3,346.1v-31.8h6.3l7.5,22.5c0.7,2.1,1.2,3.7,1.5,4.7c0.4-1.2,0.9-2.9,1.7-5.1l7.6-22.2h5.7v31.8h-4.1
		v-26.7l-9.3,26.7h-3.8l-9.2-27.1v27.1H217.3z"/>
	<path class="st0" d="M257.7,346.1v-31.8h6.3l7.5,22.5c0.7,2.1,1.2,3.7,1.5,4.7c0.4-1.2,0.9-2.9,1.7-5.1l7.6-22.2h5.7v31.8H284
		v-26.7l-9.3,26.7H271l-9.2-27.1v27.1H257.7z"/>
	<path class="st0" d="M298.3,346.1v-31.8h23v3.8h-18.8v9.8h17.6v3.7h-17.6v10.8h19.6v3.8H298.3z"/>
	<path class="st0" d="M331.2,346.1v-31.8h4.3l16.7,25v-25h4v31.8H352l-16.7-25v25H331.2z"/>
</g>
<g>
	<path class="st0" d="M243.2,386.4l1.3-6.6h-2.6v-2.3h3.1l1.1-5.6h-4.2v-2.3h4.7l1.4-6.7h2.3l-1.3,6.7h4.9l1.4-6.7h2.3l-1.3,6.7h2.7
		v2.3h-3.2l-1.2,5.6h4.3v2.3h-4.8l-1.4,6.6h-2.3l1.3-6.6h-4.9l-1.4,6.6H243.2z M247.3,377.5h4.9l1.2-5.6h-4.9L247.3,377.5z"/>
	<path class="st0" d="M258,392.4l0.5-2.4c0.6,0.1,1,0.2,1.3,0.2c0.6,0,1-0.2,1.3-0.6s0.4-1.3,0.4-2.8v-17.3h2.8V387
		c0,2-0.3,3.4-0.8,4.2c-0.7,1-1.8,1.6-3.4,1.6C259.4,392.7,258.7,392.6,258,392.4z M261.5,366.5v-3.2h2.8v3.2H261.5z"/>
	<path class="st0" d="M280.1,380.7l2.9,0.4c-0.5,1.7-1.3,3-2.5,3.9c-1.2,0.9-2.8,1.4-4.7,1.4c-2.4,0-4.3-0.7-5.7-2.2
		s-2.1-3.6-2.1-6.2c0-2.8,0.7-4.9,2.1-6.5s3.3-2.3,5.6-2.3c2.2,0,4,0.8,5.4,2.2s2.1,3.6,2.1,6.3c0,0.2,0,0.4,0,0.7h-12.3
		c0.1,1.8,0.6,3.2,1.5,4.2c0.9,1,2.1,1.4,3.4,1.4c1,0,1.9-0.3,2.6-0.8C279.1,382.8,279.6,381.9,280.1,380.7z M270.9,376.2h9.2
		c-0.1-1.4-0.5-2.4-1.1-3.1c-0.9-1.1-2-1.6-3.5-1.6c-1.3,0-2.4,0.4-3.2,1.3S271,374.8,270.9,376.2z"/>
	<path class="st0" d="M292.7,383.6l0.4,2.5c-0.8,0.2-1.5,0.2-2.1,0.2c-1,0-1.8-0.2-2.4-0.5s-1-0.7-1.2-1.3s-0.3-1.6-0.3-3.3v-9.5h-2
		v-2.2h2v-4.1l2.8-1.7v5.8h2.8v2.2h-2.8v9.6c0,0.8,0,1.3,0.1,1.5c0.1,0.2,0.3,0.4,0.5,0.5c0.2,0.1,0.5,0.2,1,0.2
		C291.8,383.7,292.2,383.6,292.7,383.6z"/>
	<path class="st0" d="M294.2,386.1v-2.3l10.5-12c-1.2,0.1-2.2,0.1-3.2,0.1h-6.7v-2.3h13.5v1.8l-8.9,10.5l-1.7,1.9
		c1.3-0.1,2.4-0.1,3.5-0.1h7.6v2.4H294.2z"/>
	<path class="st0" d="M317.8,383.6l0.4,2.5c-0.8,0.2-1.5,0.2-2.1,0.2c-1,0-1.8-0.2-2.4-0.5s-1-0.7-1.2-1.3s-0.3-1.6-0.3-3.3v-9.5h-2
		v-2.2h2v-4.1l2.8-1.7v5.8h2.8v2.2H315v9.6c0,0.8,0,1.3,0.1,1.5c0.1,0.2,0.3,0.4,0.5,0.5c0.2,0.1,0.5,0.2,1,0.2
		C316.9,383.7,317.3,383.6,317.8,383.6z"/>
	<path class="st0" d="M321,386.1v-22.7h8.5c1.7,0,3.1,0.2,4.2,0.7c1,0.5,1.9,1.2,2.5,2.1s0.9,2,0.9,3c0,1-0.3,1.9-0.8,2.7
		c-0.5,0.9-1.3,1.6-2.4,2.1c1.4,0.4,2.4,1.1,3.2,2.1s1.1,2.1,1.1,3.4c0,1.1-0.2,2.1-0.7,3c-0.5,0.9-1,1.6-1.7,2.1
		c-0.7,0.5-1.5,0.9-2.5,1.1c-1,0.3-2.2,0.4-3.7,0.4H321z M324,372.9h4.9c1.3,0,2.3-0.1,2.9-0.3c0.8-0.2,1.3-0.6,1.7-1.1
		s0.6-1.2,0.6-2c0-0.8-0.2-1.4-0.5-2c-0.4-0.6-0.9-1-1.6-1.2c-0.7-0.2-1.8-0.3-3.5-0.3H324V372.9z M324,383.4h5.7c1,0,1.7,0,2-0.1
		c0.7-0.1,1.3-0.3,1.7-0.6c0.5-0.3,0.8-0.7,1.1-1.3c0.3-0.6,0.5-1.2,0.5-1.9c0-0.8-0.2-1.6-0.7-2.2s-1-1.1-1.8-1.3
		c-0.8-0.3-1.9-0.4-3.3-0.4H324V383.4z"/>
	<path class="st0" d="M342.6,386.1v-22.7H359v2.7h-13.4v7h12.6v2.7h-12.6v7.7h14v2.7H342.6z"/>
</g>
<path class="st0" d="M457.9,127c3.6,0.1,6.9,1.6,9.4,4.1c79.9,79.9,79.9,209.7,0,289.6s-209.7,79.9-289.6,0
	c-5.4-5.3-5.6-13.9-0.3-19.3c5.3-5.4,13.9-5.6,19.3-0.3c0.1,0.1,0.2,0.2,0.3,0.3c69.4,69.4,181.5,69.4,250.9,0
	c69.4-69.4,69.4-181.5,0-250.9c-5.4-5.3-5.5-13.9-0.3-19.3C450.3,128.4,454,126.9,457.9,127z"/>
<path class="st1" d="M322.5,98.5c63.3,0,122,33.8,153.6,88.7c31.7,54.9,31.7,122.6,0,177.5c-31.6,54.9-90.3,88.7-153.6,88.7
	c-7.6,0.1-13.8-5.9-13.9-13.5c-0.1-7.6,5.9-13.8,13.5-13.9c0.1,0,0.3,0,0.4,0c53.6,0,103.2-28.6,129.9-75.1v0l0,0
	c26.8-46.5,26.8-103.7,0-150.1l0,0v0c-26.7-46.4-76.3-75.1-129.9-75.1c-7.6,0.1-13.8-5.9-13.9-13.5c-0.1-7.6,5.9-13.8,13.5-13.9
	C322.2,98.5,322.3,98.5,322.5,98.5z"/>
<path class="st2" d="M322.5,125.9c38.5,0,76.9,14.6,106.2,43.9c58.5,58.5,58.5,153.7,0,212.3c-5.3,5.4-13.9,5.5-19.3,0.2
	c-5.4-5.3-5.5-13.9-0.2-19.3c0.1-0.1,0.1-0.1,0.2-0.2c48-48.1,48-125.7,0-173.7c-48.1-48.1-125.6-48.1-173.8,0
	c-5.3,5.4-13.9,5.5-19.3,0.3s-5.5-13.9-0.3-19.3c0.1-0.1,0.2-0.2,0.3-0.3C245.6,140.6,284,125.9,322.5,125.9z"/>
</svg>
